# xmcd
#
# Track frame offsets:
#	150
#	13212
#	28442
#	43057
#	65052
#	84840
#	100355
#	116830
#	130827
#	145907
#	163415
#	179320
#
# Disc length: 2636 seconds
#
# Revision: 3
# Processed by: cddbd v1.4PL0 Copyright (c) Steve Scherf et al.
# Submitted via: CDmax 1.9
#
DISCID=b20a4a0c
DTITLE=Brownie McGhee - Blues Is Truth/Rainy Day
DYEAR=1989
DGENRE=Blues
TTITLE0=The Blues Had a Baby
TTITLE1=I'm Going To Keep On Loving
TTITLE2=Walk On
TTITLE3=Rainy Day
TTITLE4=Christina
TTITLE5=Don't Dog Your Woman
TTITLE6=Mean And Evil
TTITLE7=Wine Sporty Orty
TTITLE8=Blues Is Truth
TTITLE9=Bunkhouse
TTITLE10=Key To The Highway
TTITLE11=Blues On Parade
EXTD=Rainy Day released 1989\nBlues Is Truth released 1996\n\nBrownie McGhee -
EXTD=vocals, guitar\nSammy Price - piano\nLouisiana Red (Iverson Minter) - gu
EXTD=itar\nSugar Blue - harmonica\nAlex Blake - bass\nBrian Blake - drums\n\nR
EXTD=ecorded May 29th 1976\n\nProduced by Kent Cooper and Heiner Stadler
EXTT0=(B. McGhee)
EXTT1=(B. McGhee)
EXTT2=(B. McGhee)
EXTT3=(B. McGhee)
EXTT4=(B. McGhee)
EXTT5=(B. McGhee)
EXTT6=(B. McGhee)
EXTT7=(S. McGhee)
EXTT8=(B. McGhee)
EXTT9=(B. McGhee)
EXTT10=(Big Bill Broonzy)
EXTT11=(B. McGhee)
PLAYORDER=
